<?xml version="1.0" encoding="UTF-8"?>
<svg width="51px" height="51px" viewBox="0 0 51 51" version="1.1" xmlns="http://www.w3.org/2000/svg" xmlns:xlink="http://www.w3.org/1999/xlink">
    <!-- Generator: Sketch 48.2 (47327) - http://www.bohemiancoding.com/sketch -->
    <title>Donut Icon</title>
    <desc>Created with Sketch.</desc>
    <defs></defs>
    <g id="A&amp;R-Eatery" stroke="none" stroke-width="1" fill="none" fill-rule="evenodd" transform="translate(-219.000000, -1358.000000)">
        <g id="Navbar" transform="translate(0.000000, 1320.000000)" fill="#FC2379">
            <g id="Order-Now" transform="translate(219.000000, 38.000000)">
                <g id="Donut-Icon">
                    <path d="M3.33890625,26.43075 C3.56521875,25.9111875 4.137375,25.4920313 4.78125,25.5 C5.64665625,25.5015938 6.375,26.2283438 6.375,27.09375 L6.375,30.28125 C6.375,32.9220938 8.51540625,35.056125 11.15625,35.0625 C13.7970938,35.056125 15.9375,32.9220938 15.9375,30.28125 L15.9375,28.1041875 C15.9375,30.141 17.9105625,31.9100625 19.5632812,33.1484063 C21.1474687,34.342125 23.083875,35.0609063 25.2290625,35.0625 C25.8968438,35.0625 25.5,34.9844063 27.09375,34.8760313 L27.09375,34.6784063 C30.28125,34.0536563 32.5730625,32.0375625 33.8034375,29.063625 L34.0520625,29.0588437 C34.0504687,29.0604375 34.2114375,29.0620313 34.2114375,29.063625 C34.6114687,28.094625 34.6768125,27.0555 34.7294063,25.990875 C35.0099062,26.2793438 35.0625,26.6682187 35.0625,27.09375 L35.0625,33.46875 C35.0625,36.1095938 37.2029062,38.243625 39.84375,38.25 C42.4845938,38.243625 44.625,36.1095938 44.625,33.46875 L44.625,27.09375 C44.625,26.2283438 45.5605312,25.5015938 46.4259375,25.5 C46.8849375,25.4968125 47.4045,25.7055938 47.691375,26.0147813 C47.6053125,29.8126875 46.6395,33.3683438 44.8513125,36.465 L44.860875,36.522375 C41.01675,43.2687188 33.7795313,47.8140938 25.48725,47.8125 C14.273625,47.8172813 4.99640625,39.5074688 3.4520625,28.7480625 L3.448875,28.713 C3.33253125,28.0069688 3.270375,27.2993438 3.23053125,26.5853438 L3.33890625,26.43075 L3.33890625,26.43075 Z M31.875,25.5 C31.8734063,26.3590313 31.722,27.1288125 31.422375,27.8555625 L31.416,27.8699063 C30.6286875,29.828625 28.8930938,31.3092188 26.78775,31.7443125 C26.3574375,31.824 25.9127813,31.875 25.5,31.875 C24.0767812,31.8765938 22.7109375,31.3857188 21.6797813,30.6031875 L21.675,30.6 C20.4557813,29.6835938 19.6015312,28.3799063 19.258875,26.826 L19.2572812,26.8005 C19.1744063,26.3654063 19.125,25.9175625 19.125,25.5 C19.131375,21.9825938 21.9825938,19.131375 25.5,19.125 C29.0174062,19.131375 31.868625,21.9825938 31.875,25.5 L31.875,25.5 Z M9.7250625,9.7250625 C13.7684063,5.6833125 19.3369688,3.1875 25.5,3.1875 C31.6630312,3.1875 37.23,5.6833125 41.2749375,9.7250625 C44.6281875,13.0815 46.8929063,17.4945938 47.5750313,22.4176875 C47.2690312,22.357125 46.7510625,22.3125 46.4259375,22.3125 C43.7850937,22.318875 41.4375,24.4529063 41.4375,27.09375 L41.4375,33.46875 C41.4375,34.3341563 40.7091563,35.0609063 39.84375,35.0625 C38.9783438,35.0609063 38.25,34.3341563 38.25,33.46875 L38.25,27.09375 C38.25,24.6744375 36.6530625,22.701375 34.323,22.3794375 C33.0272812,18.6325313 29.5815938,15.9390938 25.3964063,15.9375 C21.184125,15.9390938 17.6667188,18.6675938 16.3917187,22.4495625 C14.2784063,22.9468125 12.75,24.8290313 12.75,27.09375 L12.75,30.28125 C12.75,31.1466563 12.0216563,31.8734063 11.15625,31.875 C10.2908437,31.8734063 9.5625,31.1466563 9.5625,30.28125 L9.5625,27.09375 C9.5625,24.4529063 7.42209375,22.318875 4.78125,22.3125 C4.303125,22.3140938 3.84253125,22.3874063 3.410625,22.5180938 C4.07521875,17.5535625 6.3495,13.1038125 9.7250625,9.7250625 L9.7250625,9.7250625 Z M0.3028125,29.2006875 C0.30440625,29.2054687 0.30440625,29.21025 0.306,29.216625 C0.30759375,29.223 0.30759375,29.229375 0.3091875,29.23575 C2.09578125,41.5363125 12.6910312,50.9952187 25.5,51 C34.986,50.9984063 43.28625,45.7964063 47.6674687,38.0810625 L47.685,38.0173125 C49.8174375,34.3134375 51,30.032625 51,25.5 C50.9984063,11.4224063 39.5775937,0.00159375 25.5,0 C11.4224063,0.00159375 0.00159375,11.4224063 0,25.5 C0,26.7526875 0.102,27.979875 0.30440625,29.2006875 L0.3028125,29.2006875 L0.3028125,29.2006875 Z" id="Fill-53"></path>
                    <path d="M20.002,34.001 C20.001,34 20,34 20,34 L20.003,34.002 C20.002,34.002 20.002,34.001 20.002,34.001" id="Fill-54"></path>
                    <path d="M12.9873141,18.4868766 L16.4868766,14.9873141 C17.1710411,14.3048994 17.1710411,13.1955381 16.4868766,12.5131234 C15.8027122,11.8289589 14.6951006,11.8289589 14.0126859,12.5131234 L10.5131234,16.0126859 C9.82895888,16.6951006 9.82895888,17.8044619 10.5131234,18.4868766 C11.1955381,19.1710411 12.3031496,19.1710411 12.9873141,18.4868766" id="Fill-55"></path>
                    <path d="M26.0126859,13.4868766 C26.6951006,14.1710411 27.8027122,14.1710411 28.4868766,13.4868766 C29.1710411,12.8044619 29.1710411,11.6951006 28.4868766,11.0126859 L24.9873141,7.51312336 C24.3031496,6.82895888 23.1955381,6.82895888 22.5131234,7.51312336 C21.8289589,8.19553806 21.8289589,9.30489939 22.5131234,9.98731409 L26.0126859,13.4868766" id="Fill-56"></path>
                    <path d="M36.75,14 L40.25,14 C41.216,14 42,13.552 42,13 C42,12.448 41.216,12 40.25,12 L36.75,12 C35.784,12 35,12.448 35,13 C35,13.552 35.784,14 36.75,14" id="Fill-57"></path>
                </g>
            </g>
        </g>
    </g>
</svg>